<svg xmlns="http://www.w3.org/2000/svg" width="367.072" height="367.06" viewBox="0 0 367.072 367.06">
  <path id="ruler3" d="M61.909,71.5l8.47,8.47L35.708,114.645,62.724,141.66l34.832-34.832,7.915,7.915L70.639,149.587l26.67,26.658,79.22-79.22L80.072,1.136,1.136,80.072l26.1,26.115L61.909,71.5ZM272.32,192.8,193.1,272.036l26.658,26.658L254.6,263.862l7.915,7.915-34.832,34.832L254.7,333.624l34.659-34.671,8.47,8.47L263.17,342.094l26.09,26.1,78.949-78.949L272.32,192.8ZM355.33,91.456a24.653,24.653,0,0,0,.148-34.832L312.115,13.273a24.615,24.615,0,0,0-34.819.148L250.5,40.215l78.035,78.035L355.33,91.456ZM29.066,307.423,61.453,339.81,126.7,316.634,52.241,242.18,29.066,307.423ZM242.081,48.142,58.292,231.944l78.64,78.64,183.8-183.8-78.652-78.64ZM94,231.783,241.933,83.85l8.618,8.618L102.606,240.414Zm17.237,17.249L259.157,101.1l8.618,8.618L119.843,257.639l-8.606-8.606Zm17.237,17.224L276.406,118.324l8.606,8.618L137.092,274.875l-8.618-8.618ZM11.236,357.652,49.093,343.86,25.028,319.795,11.236,357.652Z" transform="translate(-1.137 -1.136)" fill="#5773ff"/>
</svg>
