<svg id="Group_860" data-name="Group 860" xmlns="http://www.w3.org/2000/svg" width="425.391" height="349.04" viewBox="0 0 425.391 349.04">
  <g id="man" transform="translate(370.853 174.52)">
    <path id="Path_1106" data-name="Path 1106" d="M44.722,16.361A16.361,16.361,0,1,1,28.361,0,16.36,16.36,0,0,1,44.722,16.361Z" transform="translate(-1.093)" fill="#ff9057"/>
    <path id="Path_1107" data-name="Path 1107" d="M53.63,8H20.907A10.9,10.9,0,0,0,10,18.907V73.445H20.907v65.445H34.542V73.445H40v65.445H53.63V73.445H64.537V18.907A10.9,10.9,0,0,0,53.63,8Z" transform="translate(-10 35.63)" fill="#ff9057"/>
  </g>
  <g id="man-woman">
    <path id="Path_1102" data-name="Path 1102" d="M67.445,32.722A32.722,32.722,0,1,1,34.722,0,32.72,32.72,0,0,1,67.445,32.722Z" transform="translate(19.815)" fill="#ff9057"/>
    <path id="Path_1103" data-name="Path 1103" d="M85.445,32.722A32.722,32.722,0,1,1,52.722,0,32.72,32.72,0,0,1,85.445,32.722Z" transform="translate(198.149)" fill="#ff9057"/>
    <path id="Path_1104" data-name="Path 1104" d="M87.26,8H21.815A21.809,21.809,0,0,0,0,29.815V138.889H21.815V269.779H49.084V138.889H59.991V269.779H87.26V138.889h21.815V29.815A21.809,21.809,0,0,0,87.26,8Z" transform="translate(0 79.26)" fill="#ff9057"/>
    <path id="Path_1105" data-name="Path 1105" d="M193.635,95.26l16.7-12.1L164.9,12.908A10.907,10.907,0,0,0,155.8,8H68.537a10.907,10.907,0,0,0-9.108,4.908L14,83.163l16.7,12.1L68.417,46.318,81.528,76.9,35.815,160.7H77.623L84.9,269.779h21.815V160.7h10.907V269.779h21.815L146.711,160.7h41.808L142.806,76.9l13.111-30.585Z" transform="translate(138.704 79.26)" fill="#ff9057"/>
  </g>
</svg>
