<svg xmlns="http://www.w3.org/2000/svg" width="355.584" height="355.438" viewBox="0 0 355.584 355.438">
  <path id="modern-mic" d="M6.068,196.858a10.424,10.424,0,0,0-3.136,13.631L28.54,254.816a10.451,10.451,0,0,0,13.372,4.112l78.2-37.869V357.052h39.511V201.9l80.43-38.98-51.76-89.691L6.08,196.858ZM346.433,41.689a80.226,80.226,0,0,0-109.57-29.312c-17.978,10.372-29.794,26.843-35.585,45.216l58.8,101.865c18.793,4.186,38.98,2.173,57-8.2a80.217,80.217,0,0,0,29.362-109.57Z" transform="translate(-1.604 -1.613)" fill="#ffb900"/>
</svg>
