<svg xmlns="http://www.w3.org/2000/svg" width="316.042" height="316.042" viewBox="0 0 316.042 316.042">
  <path id="path" d="M285.432,288.442a44.547,44.547,0,0,1-84.278,0H17.55c-9.03,0-15.05-6.02-15.05-15.05s6.02-15.05,15.05-15.05H201.155a44.547,44.547,0,0,1,84.278,0h18.06c9.03,0,15.05,6.02,15.05,15.05s-6.02,15.05-15.05,15.05Zm-57.188-15.05c0,9.03,6.02,15.05,15.05,15.05s15.05-6.02,15.05-15.05-6.02-15.05-15.05-15.05-15.05,6.02-15.05,15.05ZM202.66,62.7a44.547,44.547,0,0,1-84.278,0H17.55c-9.03,0-15.05-6.02-15.05-15.05S8.52,32.6,17.55,32.6H118.382a44.547,44.547,0,0,1,84.278,0H303.492c9.03,0,15.05,6.02,15.05,15.05s-6.02,15.05-15.05,15.05Zm-57.188-15.05c0,9.03,6.02,15.05,15.05,15.05s15.05-6.02,15.05-15.05-6.02-15.05-15.05-15.05-15.05,6.02-15.05,15.05ZM303.492,175.57H119.887a43.838,43.838,0,0,1-42.139,30.1,43.838,43.838,0,0,1-42.139-30.1H17.55c-9.03,0-15.05-6.02-15.05-15.05s6.02-15.05,15.05-15.05h18.06a43.838,43.838,0,0,1,42.139-30.1,43.838,43.838,0,0,1,42.139,30.1H303.492c9.03,0,15.05,6.02,15.05,15.05s-6.02,15.05-15.05,15.05ZM62.7,160.521c0,9.03,6.02,15.05,15.05,15.05s15.05-6.02,15.05-15.05-6.02-15.05-15.05-15.05-15.05,6.02-15.05,15.05Z" transform="translate(-2.5 -2.5)"/>
</svg>
