<svg xmlns="http://www.w3.org/2000/svg" width="395.127" height="345.72" viewBox="0 0 395.127 345.72">
  <path id="bullhorn" d="M395.125,142.932c0-77.529-22.682-140.426-50.735-140.92.111,0,.222-.012.333-.012h-32s-75.17,56.464-183.37,78.615a336.508,336.508,0,0,0-5.408,62.317,337.678,337.678,0,0,0,5.408,62.317c108.2,22.151,183.37,78.615,183.37,78.615h32c-.111,0-.222-.012-.333-.012C372.443,283.358,395.125,220.461,395.125,142.932ZM333.709,262.553c-3.618,0-7.532-3.754-9.544-6-4.877-5.42-9.569-13.878-13.582-24.435-8.977-23.62-13.915-55.291-13.915-89.184s4.939-65.552,13.915-89.184c4.013-10.557,8.7-19.015,13.582-24.435,2.013-2.247,5.927-6,9.544-6s7.532,3.754,9.544,6c4.877,5.42,9.569,13.878,13.582,24.435,8.976,23.62,13.915,55.3,13.915,89.184s-4.939,65.552-13.915,89.184c-4.013,10.557-8.7,19.015-13.582,24.435C341.241,258.787,337.327,262.553,333.709,262.553ZM97.172,142.932a378.453,378.453,0,0,1,4.26-57.526,372.738,372.738,0,0,1-54.155,3.988H21.4L0,125.93v34.017l21.4,36.536h25.88a372.992,372.992,0,0,1,54.155,3.988,378.453,378.453,0,0,1-4.26-57.526Zm44.895,82.159-49.389-9.458L124.262,339.7a10.3,10.3,0,0,0,14.15,7.2l45.747-18.311a10.536,10.536,0,0,0,5.482-15.076Zm191.642-36.054c-1.4,0-2.9-1.445-3.68-2.309a30.677,30.677,0,0,1-5.235-9.421c-3.457-9.112-5.359-21.311-5.359-34.375s1.9-25.263,5.359-34.375a30.826,30.826,0,0,1,5.235-9.421c.778-.864,2.284-2.309,3.68-2.309s2.9,1.445,3.68,2.309a30.674,30.674,0,0,1,5.235,9.421c3.457,9.1,5.359,21.311,5.359,34.375s-1.9,25.263-5.359,34.375a30.825,30.825,0,0,1-5.235,9.421C336.611,187.592,335.1,189.037,333.709,189.037Z" transform="translate(0.002 -2)" fill="#3497fd"/>
</svg>
