<svg xmlns="http://www.w3.org/2000/svg" width="355.602" height="355.614" viewBox="0 0 355.602 355.614">
  <path id="radio" d="M317.691,139.89H81.042L258.325,35.876,238.668,1.6,16.145,131.419A29.284,29.284,0,0,0,1.6,156.731V317.7a39.5,39.5,0,0,0,39.511,39.511H317.691A39.5,39.5,0,0,0,357.2,317.7V179.413A39.5,39.5,0,0,0,317.691,139.9Zm-29.634,177.8a29.633,29.633,0,1,1,29.633-29.634A29.641,29.641,0,0,1,288.057,317.691Zm29.634-98.778H41.111V179.4H317.691Z" transform="translate(-1.6 -1.6)" fill="#ff4f63"/>
</svg>
