<svg xmlns="http://www.w3.org/2000/svg" width="296.336" height="382.581" viewBox="0 0 296.336 382.581">
  <path id="camera3" d="M287.988,198.967l-61.736-24.732V124.747L287.988,100a12.357,12.357,0,0,1,12.347,12.372v74.232A12.347,12.347,0,0,1,287.988,198.967Zm-117.3-86.6a55.674,55.674,0,1,1,55.563-55.674A55.623,55.623,0,0,1,170.688,112.363Zm-111.126,0a55.674,55.674,0,1,1,55.563-55.674A55.623,55.623,0,0,1,59.563,112.363Zm154.341,0V223.711H144.981c-.642,10.273-5.136,19.126-11.816,24.139h6.964l49.253,111.076H177.109l-16.422-37.042H127.843V383.6h-12.31V321.884H82.171L65.49,358.926H53.2L103.235,247.85h4.655c-6.68-5.013-11.174-13.866-11.816-24.139H16.347V112.363H213.9ZM115.521,251.677c-.506-.123-.975-.383-1.469-.556L87.727,309.549h27.794Zm12.31-.889v58.773H155.2l-26.25-59.205c-.358.173-.728.284-1.124.432Z" transform="translate(-4 -1.015)" fill="#3acce1"/>
</svg>
